G04 ================== begin FILE IDENTIFICATION RECORD ==================*
G04 Layout Name:  ptmd_pcb20141102_2215.brd*
G04 Film Name:    BOTTOM*
G04 File Format:  Gerber RS274X*
G04 File Origin:  Cadence Allegro 16.5-P002*
G04 Origin Date:  Sun Nov 09 14:20:20 2014*
G04 *
G04 Layer:  ETCH/BOTTOM*
G04 Layer:  PIN/BOTTOM*
G04 Layer:  VIA CLASS/BOTTOM*
G04 *
G04 Offset:    (0.0000 0.0000)*
G04 Mirror:    No*
G04 Mode:      Positive*
G04 Rotation:  0*
G04 FullContactRelief:  No*
G04 UndefLineWidth:     7.0000*
G04 ================== end FILE IDENTIFICATION RECORD ====================*
%FSAX55Y55*MOMM*%
%IR0*IPPOS*OFA0.00000B0.00000*MIA0B0*SFA1.00000B1.00000*%
%ADD10C,.635*%
%ADD14C,1.*%
%ADD23C,1.5001*%
%ADD15C,2.032*%
%ADD12C,1.016*%
%ADD18C,1.4501*%
%ADD21C,1.65*%
%ADD16C,1.524*%
%ADD22C,1.651*%
%ADD19R,1.4501X1.4501*%
%ADD20R,1.65X1.65*%
%ADD17R,1.524X1.524*%
%ADD11C,1.778*%
%ADD13C,3.8999*%
%ADD24C,.2*%
%ADD25C,.3048*%
%ADD26C,1.5*%
%ADD27C,3.3024*%
%ADD28C,2.5244*%
%ADD30C,3.3706*%
%ADD31C,3.3944*%
%ADD29C,3.6484*%
G75*
%LPD*%
G75*
G36*
G01X0035237510Y0027100010D02*
Y0027147510D01*
X0035100010D01*
Y0032062700D01*
G02X0035119010Y0032067710I0000010160J0D01*
G03X0035541310Y0031977840I0000250993J0000142289D01*
G02X0035557300Y0031967640I0000006034J-0000008174D01*
G03X0035668690Y0032142160I0000282705J-0000057633D01*
G02X0035652700Y0032152360I-0000006034J0000008174D01*
G03X0035645870Y0032294510I-0000282701J0000057656D01*
G02X0035662240Y0032305150I0000009714J0000002968D01*
G03X0035579350Y0032435010I0000177759J0000204849D01*
G02X0035562800Y0032424640I-0000009763J-0000002810D01*
G03X0035119010Y0032352290I-0000192800J-0000214641D01*
G02X0035100010Y0032357300I-0000008840J0000005010D01*
G01Y0032852490D01*
X0035207510D01*
Y0032899990D01*
X0044582490D01*
Y0032862490D01*
X0044689990D01*
Y0027147510D01*
X0044562490D01*
Y0027100010D01*
X0035237510D01*
G37*
%LPC*%
G75*
G36*
G01X0041392560Y0032434520D02*
G03X0041385440I-0000003560J-0000003625D01*
G02X0041130500Y0032442990I-0000123442J0000125480D01*
G03X0041116000Y0032443690I-0000007593J-0000006750D01*
G02Y0032676310I-0000108000J0000116310D01*
G03X0041130500Y0032677010I0000006907J0000007450D01*
G02X0041385440Y0032685480I0000131498J-0000117010D01*
G03X0041392560I0000003560J0000003625D01*
G02X0041580120Y0032723930I0000123444J-0000125479D01*
G03X0041593980Y0032733390I0000003702J0000009460D01*
G01Y0032736020D01*
X0041946020D01*
Y0032383980D01*
X0041593980D01*
Y0032386610D01*
G03X0041580120Y0032396070I-0000010158J0D01*
G02X0041392560Y0032434520I-0000064116J0000163929D01*
G37*
G36*
G01X0038171600Y0032235890D02*
G02X0038428400I0000128400J0000064110D01*
G02X0038171600I-0000128400J-0000065890D01*
G37*
G36*
G01X0038556380Y0031186480D02*
X0038540580D01*
X0038539110Y0031185090D01*
G02X0038395440Y0031427270I-0000099107J0000104911D01*
G03X0038400820Y0031442470I-0000003136J0000009662D01*
G02X0038391040Y0031606330I0000139179J0000090529D01*
G03X0038381930Y0031620980I-0000009116J0000004489D01*
G01X0038373980D01*
Y0031953020D01*
X0038706020D01*
Y0031767370D01*
X0038756030Y0031717370D01*
Y0031386130D01*
X0038556380Y0031186480D01*
G37*
G36*
G01X0043220560Y0030983520D02*
X0043592880D01*
X0043602080Y0030974320D01*
X0043604100Y0030974260D01*
G02X0043465970Y0030776480I-0000004101J-0000144261D01*
G01X0043220560D01*
G02Y0030983520I-0000100560J0000103520D01*
G37*
G36*
G01X0037683950Y0030447010D02*
G02Y0030712990I-0000053950J0000132990D01*
G02Y0030447010I0000056050J-0000132990D01*
G37*
G36*
G01X0041674120Y0030320580D02*
G03X0041668850Y0030335050I-0000008865J0000004966D01*
G02X0041820000Y0030574060I0000051150J0000134951D01*
G02X0042019110Y0030574910I0000100001J-0000104059D01*
G01X0042020580Y0030573520D01*
X0042049420D01*
X0042050890Y0030574910D01*
G02Y0030365090I0000099110J-0000104910D01*
G01X0042049420Y0030366480D01*
X0042020580D01*
X0042019110Y0030365090D01*
G02X0041938050Y0030326810I-0000099111J0000104908D01*
G03X0041930160Y0030312340I0000001271J-0000010079D01*
G02X0041674120Y0030320580I-0000130159J-0000062342D01*
G37*
G36*
G01X0037856130Y0031409730D02*
G02X0037775880Y0031376480I-0000080272J0000080270D01*
G02X0037775860I-0000000010J0000103520D01*
G01X0037120560D01*
G02X0036903840Y0031394360I-0000100557J0000103520D01*
G03X0036888480Y0031395510I-0000008175J-0000006034D01*
G01X0036773520Y0031280550D01*
Y0030145180D01*
X0036773550Y0030144920D01*
G02X0036486450I-0000143550J-0000014920D01*
G01X0036486480Y0030145180D01*
Y0030321030D01*
X0035941030Y0030866480D01*
X0035920000D01*
G02Y0031153520I0J0000143520D01*
G01X0035996340D01*
G02X0035996370I0000000015J-0000143520D01*
G02X0036104900Y0031108550I-0000000030J-0000153520D01*
G01X0036469140Y0030744310D01*
G03X0036486480Y0030751500I0000007181J0000007186D01*
G01Y0031399450D01*
X0036860550Y0031773520D01*
X0037287810D01*
G02X0037560150Y0031765760I0000132191J-0000143519D01*
G02X0037789850I0000114850J-0000135760D01*
G02X0037888940Y0031439250I0000140149J-0000135758D01*
G01X0037886230Y0031439830D01*
X0037856130Y0031409730D01*
G37*
G36*
G01X0044396020Y0029786020D02*
Y0029433980D01*
X0044043980D01*
Y0029786020D01*
X0044046610D01*
G03X0044056070Y0029799880I0J0000010158D01*
G02X0044383930I0000163930J0000064120D01*
G03X0044393390Y0029786020I0000009460J-0000003702D01*
G01X0044396020D01*
G37*
G36*
G01X0041788520Y0027820000D02*
G02X0041451480I-0000168520J0D01*
G01Y0027837930D01*
X0041443960D01*
X0041442430Y0027836030D01*
G02X0041433860Y0028073920I-0000142432J0000113968D01*
G03X0041451480Y0028080830I0000007458J0000006902D01*
G01Y0028330200D01*
X0041430200Y0028351480D01*
X0040764340D01*
X0040702750Y0028413070D01*
G02X0040677900Y0028433770I0000101365J0000146953D01*
G01X0040180200Y0028931480D01*
X0039938520D01*
Y0028703190D01*
X0039942800Y0028702510D01*
G02X0039931670Y0028416150I-0000022793J-0000142510D01*
G01X0039929810Y0028416000D01*
X0039539840Y0028026030D01*
G02X0039455870Y0027991240I-0000083982J0000083970D01*
G01X0038532140D01*
G02X0038532120I-0000000010J0000108760D01*
G02X0038448160Y0028026030I0000000022J0000118760D01*
G01X0038153240Y0028320950D01*
X0038150910Y0028320770D01*
G02X0038029890Y0028620830I-0000012909J0000169228D01*
G03X0038030580Y0028635870I-0000006473J0000007833D01*
G02Y0028852130I0000107420J0000108130D01*
G03X0038029890Y0028867170I-0000007163J0000007207D01*
G02X0038017810Y0029117830I0000108110J0000130831D01*
G03Y0029132170I-0000007198J0000007170D01*
G02X0037999740Y0029350430I0000120190J0000119829D01*
G03X0037991460Y0029366480I-0000008279J0000005890D01*
G01X0037912880D01*
X0037713520Y0029167120D01*
Y0028960560D01*
G02X0037506480I-0000103520J-0000100560D01*
G01Y0029205870D01*
G02X0037526420Y0029270120I0000113520J-0000000012D01*
G03X0037524090Y0029284030I-0000008376J0000005747D01*
G02X0037605900Y0029544260I0000085908J0000115967D01*
G01X0037607920Y0029544320D01*
X0037885140Y0029821540D01*
X0038965200D01*
G02X0038968430Y0029829310I0000134821J-0000051489D01*
G03X0038963800Y0029836480I-0000004630J0000002090D01*
G01X0038824130D01*
G02X0038743870Y0029869730I0000000012J0000113520D01*
G01X0038447920Y0030165680D01*
X0038445900Y0030165740D01*
G02X0038594260Y0030314100I0000004100J0000144260D01*
G01X0038594320Y0030312080D01*
X0038862880Y0030043520D01*
X0038875640D01*
X0038875920Y0030048310D01*
G02X0038949440Y0030165900I0000144082J-0000008305D01*
G03X0038951660Y0030181940I-0000004967J0000008861D01*
G01X0038907920Y0030225680D01*
X0038905900Y0030225740D01*
G02X0039054260Y0030374100I0000004100J0000144260D01*
G01X0039054320Y0030372080D01*
X0039140270Y0030286130D01*
G02X0039173520Y0030205880I-0000080270J-0000080272D01*
G02Y0030205860I-0000103520J-0000000010D01*
G01Y0030043520D01*
X0039629440D01*
G02X0039782360Y0030074490I0000100561J-0000103519D01*
G03X0039795510Y0030087640I0000003686J0000009464D01*
G02X0040030560Y0030243520I0000134487J0000052363D01*
G01X0040237120D01*
X0040372740Y0030379140D01*
G03X0040365550Y0030396480I-0000007187J0000007180D01*
G01X0040120560D01*
G02X0039881060Y0030460950I-0000100561J0000103519D01*
G03X0039867250Y0030467520I-0000009778J-0000002754D01*
G02X0039910560Y0030703520I-0000057249J0000132480D01*
G01X0040197370D01*
X0040197950Y0030703660D01*
G02X0040207620Y0030705470I0000023859J-0000100734D01*
G01X0040209300Y0030705700D01*
X0040235480Y0030731880D01*
Y0030805770D01*
G03X0040221680Y0030815250I-0000010160J-0000000005D01*
G02X0040069440Y0030846480I-0000051681J0000134750D01*
G01X0039938140D01*
G02X0039938120I-0000000010J0000103520D01*
G02X0039857870Y0030879730I0000000022J0000113520D01*
G01X0039731480Y0031006120D01*
X0039728970Y0031005760D01*
G02X0039639880Y0031016070I-0000024978J0000174240D01*
G03X0039626020Y0031006610I-0000003702J-0000009460D01*
G01Y0031003980D01*
X0039273980D01*
Y0031356020D01*
X0039626020D01*
Y0031353390D01*
G03X0039639880Y0031343930I0000010158J0D01*
G02X0039827440Y0031305480I0000064116J-0000163929D01*
G03X0039834560I0000003560J0000003625D01*
G02X0040089500Y0031297010I0000123442J-0000125480D01*
G03X0040104000Y0031296310I0000007593J0000006750D01*
G02X0040281470Y0031322710I0000108001J-0000116310D01*
G01X0040284730Y0031321120D01*
X0040357740Y0031394140D01*
G03X0040350550Y0031411480I-0000007187J0000007180D01*
G01X0039650200D01*
X0039326070Y0031735610D01*
G03X0039308720Y0031728420I-0000007188J-0000007184D01*
G01Y0031638280D01*
X0039308310D01*
G03X0039299760Y0031622630I0000000001J-0000010161D01*
G02X0039020240I-0000139760J-0000089630D01*
G03X0039011690Y0031638280I-0000008551J0000005489D01*
G01X0039011280D01*
Y0031935720D01*
X0039101420D01*
G03X0039108610Y0031953070I0000000006J0000010162D01*
G01X0038795480Y0032266200D01*
Y0032403980D01*
X0038533980D01*
Y0032756020D01*
X0038886020D01*
Y0032753390D01*
G03X0038899880Y0032743930I0000010158J0D01*
G02X0039087440Y0032705480I0000064116J-0000163929D01*
G03X0039094560I0000003560J0000003625D01*
G02X0039349500Y0032697010I0000123442J-0000125480D01*
G03X0039364000Y0032696310I0000007593J0000006750D01*
G02X0039469510Y0032421300I0000108000J-0000116310D01*
G03X0039462170Y0032403960I-0000000157J-0000010157D01*
G01X0039707410Y0032158710D01*
G03X0039724640Y0032167400I0000007182J0000007186D01*
G02X0040202800Y0032424640I0000285358J0000042598D01*
G03X0040219350Y0032435010I0000006787J0000007560D01*
G02X0040302240Y0032305150I0000260649J0000074989D01*
G03X0040285870Y0032294510I-0000006656J-0000007672D01*
G02X0040292700Y0032152360I-0000275871J-0000084494D01*
G03X0040308690Y0032142160I0000009956J-0000002026D01*
G02X0040728750Y0031763830I0000171308J-0000232158D01*
G03X0040737510Y0031748520I0000008759J-0000005149D01*
G01X0043308210D01*
G03X0043317540Y0031762710I0000000003J0000010160D01*
G02X0043346480Y0031920560I0000132461J0000057293D01*
G01Y0032261120D01*
X0043211480Y0032396120D01*
X0043208970Y0032395760D01*
G02X0043096330Y0032417370I-0000024965J0000174240D01*
G01X0043095150Y0032418040D01*
X0043088720D01*
Y0032411280D01*
X0042771280D01*
Y0032532730D01*
G03X0042751960Y0032537130I-0000010160J0000000004D01*
G02Y0032682870I-0000151960J0000072870D01*
G03X0042771280Y0032687270I0000009160J0000004396D01*
G01Y0032728720D01*
X0043088720D01*
Y0032721960D01*
X0043095150D01*
X0043096330Y0032722630D01*
G02X0043307440Y0032695480I0000087672J-0000152631D01*
G03X0043314560I0000003560J0000003625D01*
G02X0043561440I0000123440J-0000125480D01*
G03X0043568560I0000003560J0000003625D01*
G02Y0032444520I0000123440J-0000125480D01*
G03X0043561440I-0000003560J-0000003625D01*
G02X0043510330Y0032409530I-0000123438J0000125482D01*
G03X0043507320Y0032393080I0000004173J-0000009264D01*
G01X0043553520Y0032346880D01*
Y0031920560D01*
G02X0043582460Y0031762710I-0000103521J-0000100557D01*
G03X0043591790Y0031748520I0000009327J-0000004030D01*
G01X0043641300D01*
X0043711300Y0031678520D01*
X0043780000D01*
G02Y0031341480I0J-0000168520D01*
G01X0043571700D01*
X0043501700Y0031411480D01*
X0042531790D01*
G03X0042522460Y0031397290I-0000000003J-0000010160D01*
G02X0042284510Y0031241520I-0000132462J-0000057282D01*
G02X0042237670Y0031269730I0000033423J0000108487D01*
G01X0042205820Y0031301580D01*
X0042205310Y0031301890D01*
G02X0042186460Y0031316800I0000054363J0000088099D01*
G01X0042175980Y0031327280D01*
X0041853830D01*
X0041853290Y0031322810D01*
G02X0041814910Y0031240890I-0000143293J0000017183D01*
G01X0041813520Y0031239420D01*
Y0031213760D01*
X0041817970Y0031213200D01*
G02X0041924430Y0031143100I-0000017979J-0000143195D01*
G02X0041934130Y0031143520I0000009756J-0000113098D01*
G01X0042219440D01*
G02X0042461530Y0031068240I0000100559J-0000103519D01*
G02X0042373940Y0030820980I0000012968J-0000143738D01*
G01X0042096060D01*
G02X0041872720Y0030848650I-0000100559J0000103520D01*
G03X0041856890Y0030850490I-0000008643J-0000005341D01*
G01X0041304530Y0030298130D01*
G03X0041305080Y0030283260I0000007187J-0000007179D01*
G02X0041128160Y0029985150I-0000115078J-0000133258D01*
G03X0041115090Y0029979210I-0000003560J-0000009516D01*
G02X0040875550Y0029930400I-0000135092J0000050787D01*
G03X0040861020Y0029930580I-0000007353J-0000007008D01*
G01X0040813520Y0029883080D01*
Y0029772500D01*
G03X0040830680Y0029765130I0000010162J-0000000002D01*
G02X0040782200Y0029632460I0000109318J-0000115139D01*
G03X0040764920Y0029638520I-0000010097J-0000001124D01*
G01X0040542880Y0029416480D01*
X0039870560D01*
G02X0039743240Y0029378180I-0000100561J0000103519D01*
G03X0039738750Y0029369560I-0000000936J-0000004992D01*
G02X0039740100Y0029368230I-0000124612J-0000127836D01*
G01X0039839800Y0029268520D01*
X0040245860D01*
G02X0040245900I0000000020J-0000168520D01*
G02X0040372100Y0029216230I-0000000036J-0000178522D01*
G01X0040899800Y0028688520D01*
X0041305600D01*
X0041305720Y0028693480D01*
G02X0041466990Y0028833320I0000144280J-0000003478D01*
G03X0041475540Y0028850420I0000001200J0000010088D01*
G02X0041470030Y0029043460I0000104460J0000099580D01*
G01X0041471240Y0029044880D01*
Y0029045050D01*
X0041472660Y0029046470D01*
X0041472750Y0029046570D01*
G02X0041483530Y0029057340I0000107250J-0000096570D01*
G01X0041644950Y0029218760D01*
X0041713980D01*
Y0029576020D01*
X0041919620D01*
X0042277120Y0029933520D01*
X0042925690D01*
G03X0042934520Y0029948700I-0000000001J0000010159D01*
G02X0042915740Y0030015900I0000125482J0000071292D01*
G01X0042915680Y0030017920D01*
X0042885840Y0030047760D01*
G02X0042852590Y0030128010I0000080270J0000080272D01*
G02Y0030128030I0000103520J0000000010D01*
G01Y0030361980D01*
G02X0042885840Y0030442240I0000113520J-0000000012D01*
G01X0042960460Y0030516860D01*
X0042960820Y0030518160D01*
G02X0043104100Y0030335740I0000139182J-0000038160D01*
G01X0043102080Y0030335680D01*
X0043077880Y0030311480D01*
X0043059630D01*
Y0030164320D01*
G02X0043185480Y0029948700I0000000371J-0000144320D01*
G03X0043194310Y0029933520I0000008831J-0000005021D01*
G01X0043427120D01*
X0043816480Y0030322880D01*
Y0031022880D01*
X0044114690Y0031321090D01*
G03X0044114420Y0031335710I-0000007185J0000007180D01*
G02X0044333520Y0031325510I0000115574J0000124290D01*
G01Y0031247120D01*
X0044023520Y0030937120D01*
Y0030237120D01*
X0043546130Y0029759730D01*
G02X0043465880Y0029726480I-0000080272J0000080270D01*
G02X0043465860I-0000000010J0000103520D01*
G01X0042362880D01*
X0042213320Y0029576920D01*
G03X0042216330Y0029560470I0000007183J-0000007186D01*
G02X0042213440Y0029238260I-0000072332J-0000160469D01*
G03X0042217450Y0029218760I0000004003J-0000009339D01*
G01X0042275130D01*
G02Y0029001240I0000094870J-0000108760D01*
G01X0041735050D01*
X0041719790Y0028985980D01*
X0041720440Y0028983220D01*
G02X0041638790Y0028818200I-0000140442J-0000033221D01*
G03X0041642930Y0028798760I0000004139J-0000009279D01*
G01X0042474950D01*
X0042844950Y0029168760D01*
X0043465130D01*
G02Y0028951240I0000094870J-0000108760D01*
G01X0042935050D01*
X0042565050Y0028581240D01*
X0041701610D01*
G03X0041694430Y0028563900I0000000004J-0000010158D01*
G01X0041736230Y0028522100D01*
G02X0041788520Y0028395870I-0000126232J-0000126236D01*
G01Y0027820000D01*
G37*
G54D27*
X0035300000Y0027430000D03*
Y0027950000D03*
G54D28*
X0036430000Y0029870000D03*
X0043490000Y0030420000D03*
G54D30*
X0042150000Y0031960000D03*
X0042600000D03*
X0042150000Y0032610000D03*
G54D31*
X0044230000Y0030460000D03*
G54D29*
X0041300000Y0027430000D03*
%LPD*%
G75*
G36*
G01X0040275860Y0030036480D02*
G03X0040275880I0000000010J0000103520D01*
G03X0040340130Y0030056430I-0000000026J0000113519D01*
G03X0040541050Y0030038030I0000109872J0000093572D01*
G02X0040555240Y0030036690I0000006414J-0000007882D01*
G03X0040571580Y0030019710I0000134752J0000113321D01*
G02X0040571930Y0030005010I-0000006837J-0000007517D01*
G01X0040542420Y0029975500D01*
X0040519100D01*
X0040507920Y0029964320D01*
X0040505900Y0029964260D01*
G03X0040488090Y0029677350I0000004098J-0000144262D01*
G02X0040493730Y0029660130I-0000001547J-0000010040D01*
G01X0040457120Y0029623520D01*
X0039870560D01*
G03X0039654110Y0029433980I-0000100562J-0000103521D01*
G02X0039644230Y0029417920I-0000008158J-0000006050D01*
G03X0039613870Y0029420520I-0000030357J-0000175921D01*
G01X0039361450D01*
G02X0039354260Y0029437860I-0000000003J0000010160D01*
G01X0039373520Y0029457120D01*
Y0029539440D01*
G03X0039253820Y0029783410I-0000103519J0000100560D01*
G02X0039242640Y0029791960I-0000001139J0000010096D01*
G03X0039234390Y0029822620I-0000142645J-0000021943D01*
G02X0039243850Y0029836480I0000009460J0000003702D01*
G01X0039629440D01*
G03X0039864490Y0029992360I0000100563J0000103517D01*
G02X0039877640Y0030005510I0000009464J0000003686D01*
G03X0040030560Y0030036480I0000052359J0000134489D01*
G01X0040275860D01*
G37*
G54D10*
X0034920000Y0026830000D03*
X0034890000Y0033170000D03*
X0044880000Y0026830000D03*
X0044900000Y0033180000D03*
G54D11*
X0035300000Y0027430000D03*
Y0027950000D03*
X0041300000Y0027430000D03*
Y0027950000D03*
G54D20*
X0038710000Y0032580000D03*
X0039450000Y0031180000D03*
X0041890000Y0029400000D03*
X0041770000Y0032560000D03*
X0042930000Y0032570000D03*
X0044220000Y0029610000D03*
G54D21*
X0039704000Y0031180000D03*
X0039472000Y0032580000D03*
X0039218000D03*
X0038964000D03*
X0040466000Y0031180000D03*
X0040212000D03*
X0039958000D03*
X0040720000D03*
X0041008000Y0032560000D03*
X0041262000D03*
X0041516000D03*
X0042144000Y0029400000D03*
X0043438000Y0032570000D03*
X0043184000D03*
X0044220000Y0029864000D03*
X0043692000Y0032570000D03*
G54D12*
X0035408000Y0028932000D03*
Y0028424000D03*
Y0029440000D03*
Y0030456000D03*
Y0029948000D03*
Y0030964000D03*
Y0031472000D03*
X0036424000Y0027408000D03*
X0035916000D03*
X0036424000Y0027916000D03*
X0035916000D03*
X0036424000Y0028932000D03*
X0035916000D03*
Y0028424000D03*
Y0029440000D03*
Y0030456000D03*
Y0029948000D03*
X0036630000Y0030130000D03*
X0036424000Y0030964000D03*
X0036160000Y0031540000D03*
X0036932000Y0027408000D03*
Y0027916000D03*
Y0028932000D03*
Y0030456000D03*
X0036990000Y0029840000D03*
X0036932000Y0030964000D03*
X0036990000Y0030650000D03*
X0037020000Y0031480000D03*
X0037948000Y0027408000D03*
X0037440000D03*
X0037948000Y0027916000D03*
X0037440000D03*
X0037610000Y0028860000D03*
X0037440000Y0028932000D03*
X0037610000Y0029400000D03*
X0037440000Y0030456000D03*
X0037740000Y0030580000D03*
X0038456000Y0027408000D03*
Y0027916000D03*
X0038450000Y0030310000D03*
X0038910000Y0030370000D03*
X0038730000Y0030650000D03*
X0038440000Y0031290000D03*
X0038300000Y0032170000D03*
X0039472000Y0027408000D03*
X0038964000D03*
X0039472000Y0027916000D03*
X0038964000D03*
X0039300000Y0029000000D03*
X0039270000Y0029640000D03*
X0039100000Y0029770000D03*
X0039150000Y0030350000D03*
X0039020000Y0030040000D03*
X0039472000Y0032488000D03*
X0039980000Y0027408000D03*
Y0027916000D03*
X0039920000Y0028560000D03*
X0039770000Y0028620000D03*
Y0029520000D03*
X0039930000Y0030140000D03*
X0040020000Y0030500000D03*
X0040450000Y0030150000D03*
X0039730000Y0029940000D03*
X0040170000Y0030950000D03*
X0039810000Y0030600000D03*
X0040996000Y0027408000D03*
X0040488000D03*
X0040996000Y0027916000D03*
X0040488000D03*
X0040460000Y0029990000D03*
X0040830000Y0030530000D03*
X0040510000Y0029820000D03*
X0040980000Y0030030000D03*
X0040820000Y0030680000D03*
X0041215000Y0030780000D03*
X0040960000Y0031290000D03*
X0041504000Y0027408000D03*
X0041620000Y0027820000D03*
X0041450000Y0028690000D03*
X0041580000Y0028950000D03*
X0041340000Y0030340000D03*
X0041720000Y0030470000D03*
X0041800000Y0030250000D03*
X0041920000Y0030470000D03*
X0041800000Y0031070000D03*
X0041415000Y0031345000D03*
X0041710000Y0031340000D03*
X0041636500Y0032323500D03*
X0042012000Y0028932000D03*
X0042370000Y0029110000D03*
X0042012000Y0029948000D03*
X0042400000Y0030550000D03*
X0042150000Y0030470000D03*
X0042320000Y0031040000D03*
X0042474500Y0030924500D03*
X0041995500D03*
X0042390000Y0031340000D03*
X0043400000Y0029200000D03*
X0042780000Y0029510000D03*
X0043490000Y0030150000D03*
X0043100000Y0030480000D03*
X0043060000Y0030020000D03*
X0043120000Y0030880000D03*
X0043110000Y0030690000D03*
X0043450000Y0031820000D03*
X0043536000Y0029440000D03*
X0043560000Y0029060000D03*
X0044044000Y0029948000D03*
X0043600000Y0030830000D03*
X0043780000Y0031510000D03*
G54D13*
X0035840000Y0031910000D03*
X0035370000Y0032210000D03*
X0035840000Y0032510000D03*
X0040480000Y0031910000D03*
X0040010000Y0032210000D03*
X0040480000Y0032510000D03*
G54D22*
X0040940000Y0029650000D03*
X0040690000Y0030150000D03*
X0041190000D03*
G54D23*
X0042150000Y0031960000D03*
X0042600000D03*
X0042150000Y0032610000D03*
X0042600000D03*
G54D14*
G01X0035920000Y0031010000D02*
X0035996340D01*
G02X0036003410Y0031007070I-0000000002J-0000010000D01*
G01X0036627070Y0030383410D01*
G02X0036630000Y0030376340I-0000007070J-0000007072D01*
G01D02*
Y0031340000D01*
X0036920000Y0031630000D01*
X0037420000D01*
G01X0036630000Y0030250000D02*
Y0030130000D01*
G01Y0030376340D02*
Y0030250000D01*
D03*
X0036430000Y0029870000D03*
X0035920000Y0031010000D03*
X0037630000Y0030580000D03*
X0038300000Y0032300000D03*
X0043490000Y0030420000D03*
G54D24*
G01X0037020000Y0031480000D02*
X0037775860D01*
G03X0037782930Y0031482930I-0000000002J0000010000D01*
G01X0037930000Y0031630000D01*
G01X0039270000Y0029640000D02*
Y0029500000D01*
X0039240000Y0029470000D01*
X0037874140D01*
G03X0037867070Y0029467070I0000000002J-0000010000D01*
G01X0037612930Y0029212930D01*
G03X0037610000Y0029205860I0000007070J-0000007072D01*
G01Y0028860000D01*
G01X0039100000Y0029770000D02*
X0039048020Y0029718020D01*
X0037928020D01*
X0037610000Y0029400000D01*
G01X0038450000Y0030310000D02*
X0038817070Y0029942930D01*
G03X0038824140Y0029940000I0000007072J0000007070D01*
G01X0039730000D01*
G01X0038540000Y0031787000D02*
X0038652510Y0031674490D01*
Y0031429010D01*
X0038513500Y0031290000D01*
X0038440000D01*
G01X0039020000Y0030040000D02*
X0039070000Y0030090000D01*
Y0030205860D01*
G03X0039067070Y0030212930I-0000010000J-0000000002D01*
G01X0038910000Y0030370000D01*
G01X0041800000Y0031070000D02*
X0041760000Y0031030000D01*
Y0030975960D01*
X0040710000Y0029925960D01*
Y0029730000D01*
X0040500000Y0029520000D01*
X0039770000D01*
G01X0039930000Y0030140000D02*
X0040275860D01*
G03X0040282930Y0030142930I-0000000002J0000010000D01*
G01X0040820000Y0030680000D01*
G01X0040020000Y0030500000D02*
X0040385860D01*
G03X0040392930Y0030502930I-0000000002J0000010000D01*
G01X0041007070Y0031117070D01*
G02X0041014140Y0031120000I0000007072J-0000007070D01*
G01X0041185860D01*
G03X0041192930Y0031122930I-0000000002J0000010000D01*
G01X0041415000Y0031345000D01*
G01X0040170000Y0030950000D02*
X0039938140D01*
G02X0039931070Y0030952930I0000000002J0000010000D01*
G01X0039704000Y0031180000D01*
G01X0040960000Y0031290000D02*
X0040886500D01*
X0040866500Y0031310000D01*
X0040420000D01*
X0040339000Y0031229000D01*
Y0030689000D01*
X0040252930Y0030602930D01*
X0040221830D01*
G02X0040214760Y0030600000I-0000007072J0000007070D01*
G01X0039810000D01*
G01X0041710000Y0031340000D02*
Y0031108420D01*
X0041709200Y0031107620D01*
Y0030995880D01*
X0040585300Y0029871980D01*
X0040561980D01*
X0040510000Y0029820000D01*
G01X0040980000Y0030030000D02*
Y0030120000D01*
X0041897070Y0031037070D01*
X0041927070D01*
G02X0041934140Y0031040000I0000007072J-0000007070D01*
G01X0042320000D01*
G01X0041890000Y0029400000D02*
X0042320000Y0029830000D01*
X0043465860D01*
G03X0043472930Y0029832930I-0000000002J0000010000D01*
G01X0043920000Y0030280000D01*
Y0030980000D01*
X0044230000Y0031290000D01*
Y0031460000D01*
G01X0041800000Y0030250000D02*
Y0030390000D01*
X0041720000Y0030470000D01*
G01X0042390000Y0031340000D02*
X0042317940D01*
G02X0042310870Y0031342930I0000000002J0000010000D01*
G01X0042266730Y0031387070D01*
G03X0042259660Y0031390000I-0000007072J-0000007070D01*
G01X0042218860Y0031430800D01*
X0041604940D01*
X0041540000Y0031365860D01*
Y0030990000D01*
X0041330000Y0030780000D01*
X0041215000D01*
G01X0041920000Y0030470000D02*
X0042150000D01*
G01X0041995500Y0030924500D02*
X0042474500D01*
G01X0043100000Y0030480000D02*
X0043035000Y0030415000D01*
X0043005000D01*
X0042959040Y0030369040D01*
G03X0042956110Y0030361970I0000007070J-0000007072D01*
G01Y0030128030D01*
G03X0042959040Y0030120960I0000010000J0000000002D01*
G01X0043060000Y0030020000D01*
G01X0043600000Y0030830000D02*
X0043550000Y0030880000D01*
X0043120000D01*
G01X0043450000Y0031820000D02*
Y0032304000D01*
X0043184000Y0032570000D01*
G54D15*
X0037420000Y0031630000D03*
X0037930000D03*
X0037675000D03*
G54D25*
G01X0035300000Y0027259800D02*
Y0027430000D01*
G01D02*
Y0027600200D01*
G01X0035129800Y0027430000D02*
X0035300000D01*
G01D02*
X0035470200D01*
G01X0035637070Y0028287070D02*
X0035300000Y0027950000D01*
G01Y0027779800D02*
Y0027950000D01*
G01D02*
Y0028120200D01*
G01X0035129800Y0027950000D02*
X0035300000D01*
G01D02*
X0035470200D01*
G01X0035700960Y0028880960D02*
X0035650000D01*
G03X0035640000Y0028870960I0J-0000010000D01*
G01Y0028294140D01*
G02X0035637070Y0028287070I-0000010000J0000000002D01*
G01X0035700960Y0028880960D02*
X0037044900D01*
G02X0037051970Y0028878030I-0000000002J-0000010000D01*
G01X0037183070Y0028746930D01*
G03X0037190140Y0028744000I0000007072J0000007070D01*
G01X0035703890Y0029143890D02*
G03X0035700960Y0029136820I0000007070J-0000007072D01*
G01Y0028880960D01*
G01X0036430000Y0029870000D02*
X0035703890Y0029143890D01*
G01X0035563700Y0032510000D02*
X0035840000D01*
G01X0036960000Y0029870000D02*
X0036430000D01*
G01Y0029738700D02*
Y0029870000D01*
G01D02*
Y0030001300D01*
G01X0036298700Y0029870000D02*
X0036430000D01*
G01X0036160000Y0031540000D02*
Y0032185860D01*
G03X0036157070Y0032192930I-0000010000J-0000000002D01*
G01D02*
X0035840000Y0032510000D01*
G01Y0032233700D02*
Y0032510000D01*
G01D02*
Y0032786300D01*
G01Y0032510000D02*
X0036116300D01*
G01X0037190140Y0028744000D02*
X0038138000D01*
G01X0036990000Y0029840000D02*
X0036960000Y0029870000D01*
G01D02*
X0036987070Y0029897070D01*
G03X0036990000Y0029904140I-0000007070J0000007072D01*
G01Y0030650000D01*
G01X0037630000Y0030580000D02*
X0037740000D01*
G01X0039160000Y0031787000D02*
X0039024930Y0031922070D01*
G03X0039017860Y0031925000I-0000007072J-0000007070D01*
G01X0037974140D01*
G01D02*
G03X0037967070Y0031922070I0000000002J-0000010000D01*
G01D02*
X0037675000Y0031630000D01*
G01X0039920000Y0028560000D02*
X0039462930Y0028102930D01*
G02X0039455860Y0028100000I-0000007072J0000007070D01*
G01X0038532140D01*
G02X0038525070Y0028102930I0000000002J0000010000D01*
G01X0038138000Y0028490000D01*
G01X0038730000Y0030650000D02*
X0038845860D01*
G02X0038852930Y0030647070I-0000000002J-0000010000D01*
G01X0039150000Y0030350000D01*
G01X0038300000Y0032300000D02*
Y0032170000D01*
G01X0039300000Y0029000000D02*
X0039225490Y0028925490D01*
G02X0039218420Y0028922560I-0000007072J0000007070D01*
G01X0038979580D01*
G02X0038972510Y0028925490I0000000002J0000010000D01*
G01X0038900000Y0028998000D01*
G01X0039680000Y0030350000D02*
X0039150000D01*
G01X0039472000Y0032488000D02*
Y0032580000D01*
G01D02*
Y0032743800D01*
G01Y0032580000D02*
X0039635800D01*
G01X0040460000Y0029990000D02*
X0040420000Y0030030000D01*
X0039860480D01*
X0039830000Y0030060480D01*
Y0030195860D01*
G03X0039827070Y0030202930I-0000010000J-0000000002D01*
G01X0039680000Y0030350000D01*
G01D02*
Y0030660000D01*
X0039760000Y0030740000D01*
G01D02*
X0040223760D01*
G01D02*
X0040283760Y0030800000D01*
Y0030997800D01*
X0040212000Y0031069560D01*
Y0031180000D01*
G01X0040203700Y0032510000D02*
X0040480000D01*
G01X0040940000Y0029650000D02*
X0041337070Y0030047070D01*
G01X0040940000Y0029486150D02*
Y0029650000D01*
G01D02*
Y0029813850D01*
G01Y0029650000D02*
X0041103850D01*
G01X0040450000Y0030150000D02*
X0040830000Y0030530000D01*
G01X0041008000Y0032396200D02*
Y0032560000D01*
G01D02*
Y0032723800D01*
G01X0040844200Y0032560000D02*
X0041008000D01*
G01X0040480000Y0032233700D02*
Y0032510000D01*
G01D02*
Y0032786300D01*
G01Y0032510000D02*
X0040756300D01*
G01X0041450000Y0028690000D02*
X0042520000D01*
X0042890000Y0029060000D01*
X0043560000D01*
G01X0041580000Y0028950000D02*
Y0029000000D01*
X0041690000Y0029110000D01*
X0042370000D01*
G01X0041337070Y0030047070D02*
G03X0041340000Y0030054140I-0000007070J0000007072D01*
G01D02*
Y0030340000D01*
G01X0041636500Y0032323500D02*
X0042683500D01*
G01X0043110000Y0030690000D02*
X0042960000D01*
X0042820000Y0030550000D01*
X0042400000D01*
G01X0042683500Y0032323500D02*
X0042930000Y0032570000D01*
G01X0042780000Y0029510000D02*
Y0029300000D01*
X0042880000Y0029200000D01*
X0043400000D01*
G01X0043490000Y0030420000D02*
X0043220000Y0030690000D01*
G01X0043358700Y0030420000D02*
X0043490000D01*
G01X0043220000Y0030690000D02*
X0043110000D01*
G01X0042930000Y0032406200D02*
Y0032570000D01*
G01D02*
Y0032733800D01*
G01X0043490000Y0030150000D02*
Y0030420000D01*
G01D02*
Y0030551300D01*
G01Y0030420000D02*
X0043621300D01*
G54D16*
X0038138000Y0028490000D03*
Y0028744000D03*
Y0028998000D03*
Y0029252000D03*
X0038900000Y0028998000D03*
Y0028744000D03*
Y0029252000D03*
X0044230000Y0030460000D03*
Y0031460000D03*
G54D26*
G01X0039770000Y0029100000D02*
X0039620930Y0029249070D01*
G03X0039613860Y0029252000I-0000007072J-0000007070D01*
G01X0038900000D01*
G01X0038964000Y0032580000D02*
Y0032336000D01*
X0039720000Y0031580000D01*
X0043571500D01*
X0043641500Y0031510000D01*
X0043780000D01*
G01X0040480000Y0031910000D02*
X0039717800D01*
X0039218000Y0032409800D01*
Y0032580000D01*
G01X0039770000Y0029100000D02*
X0040245860D01*
G02X0040252930Y0029097070I-0000000002J-0000010000D01*
G01X0040797070Y0028552930D01*
G03X0040804140Y0028550000I0000007072J0000007070D01*
G01X0040834140Y0028520000D01*
X0041500000D01*
X0041617070Y0028402930D01*
G02X0041620000Y0028395860I-0000007070J-0000007072D01*
G01Y0027820000D01*
G01X0039770000Y0028620000D02*
Y0029100000D01*
G54D17*
X0038900000Y0028490000D03*
G54D18*
X0038540000Y0031533000D03*
X0039160000D03*
G54D19*
X0038540000Y0031787000D03*
X0039160000D03*
M02*
