M48
INCH,LZ
T01C.102358
T02C.055
T03C.044
T04C.043311
T05C.042
T06C.03937
T07C.037402
T08C.036
T09C.02598
T10C.125
;LEADER: 12 
;HEADER: 
;CODE  : ASCII 
;FILE  : ptmd_pcb20141102_2215-1-2.drl for board ptmd_pcb20141102_2215.brd ... layers TOP and BOTTOM
;T01 Holesize 1. = 102.358268 Tolerance = +0.000000/-0.000000 PLATED MILS Quantity = 6
;T02 Holesize 2. = 55.000000 Tolerance = +0.000000/-0.000000 PLATED MILS Quantity = 3
;T03 Holesize 3. = 44.000000 Tolerance = +0.000000/-0.000000 PLATED MILS Quantity = 4
;T04 Holesize 4. = 43.311024 Tolerance = +0.000000/-0.000000 PLATED MILS Quantity = 22
;T05 Holesize 5. = 42.000000 Tolerance = +0.000000/-0.000000 PLATED MILS Quantity = 3
;T06 Holesize 6. = 39.370079 Tolerance = +0.000000/-0.000000 PLATED MILS Quantity = 4
;T07 Holesize 7. = 37.401575 Tolerance = +0.000000/-0.000000 PLATED MILS Quantity = 4
;T08 Holesize 8. = 36.000000 Tolerance = +0.000000/-0.000000 PLATED MILS Quantity = 10
;T09 Holesize 9. = 25.980315 Tolerance = +0.000000/-0.000000 PLATED MILS Quantity = 110
%
G90
T01
X139252Y126811
X141102Y12563
X141102Y127992
X15752Y126811
X15937Y12563
X15937Y127992
T02
X147323Y124528
R02X001004
T03
X138976Y107992
X138976Y110039
X162598Y110039
X162598Y107992
T04
X164921Y115748
X165921Y115748
X174094Y116575
X174094Y117575
X160315Y122756
R03X-001
X156315Y122756
X155315Y122756
X152402Y128268
X153402Y128268
X154402Y128268
X155402Y128268
X161449Y128189
R03X001
X169016Y128228
R03X001
T05
X161181Y116732
X160197Y118701
X162165Y118701
T06
X165945Y125827
X167717Y125827
X167717Y128386
X165945Y128386
T07
X151732Y124146
X151732Y125146
X154173Y125146
X154173Y124146
T08
X15015Y112165
R02Y001
X15015Y115165
X15315Y115165
X15315Y114165
R02Y-001
X174134Y119921
X174134Y123858
T09
X141402Y107906
X143402Y107906
X145402Y107906
X147402Y107906
X149402Y107906
X151402Y107906
X153402Y107906
R02X002
X159402Y107906
X161402Y107906
X163402Y107906
X163858Y109528
X161402Y109906
X159402Y109906
X157402Y109906
R02X-002
X151402Y109906
X149402Y109906
X147402Y109906
X145402Y109906
X143402Y109906
X141402Y111906
X141402Y109906
X139402Y111906
X139402Y115906
X139402Y113906
X141402Y115906
X141402Y113906
X143402Y113906
X145402Y113906
X147402Y113906
X148071Y113622
X148071Y115748
X154724Y114173
X156575Y112677
X157165Y112441
X163189Y112953
X163701Y113976
X165402Y113906
X166811Y114606
X170866Y114961
X171402Y115906
X171496Y114409
X173402Y117906
X17122Y118701
X169528Y118189
X168425Y116181
X165945Y119961
X165402Y117906
X165039Y119961
X164567Y119094
X164252Y119961
X162756Y119449
X161339Y118228
X159488Y117402
X159291Y118071
X159252Y118701
X157205Y118661
X156575Y11622
X156417Y117874
X154606Y116693
X154134Y119488
X153937Y117205
X153622Y118268
X153189Y119567
X151378Y119331
X147402Y119906
X14563Y11748
X145402Y119906
X144213Y118622
X141402Y119906
X141402Y117906
X139402Y117906
X139402Y119906
X139402Y121906
X139402Y123906
X143402Y121906
X145402Y121906
X14563Y120669
X145748Y123937
X148583Y120394
X151339Y123189
X15248Y120669
X156732Y120472
X157559Y120079
X15815Y12185
X160709Y120787
X160748Y120197
X16126Y123189
X162264Y121181
X163051Y123406
X164213Y123386
X164567Y122323
X165337Y12175
X166614Y122205
X16689Y123386
X166929Y120276
X167222Y12175
X169685Y12
X169724Y120827
X169764Y121575
X171654Y121378
X172362Y124055
X171063Y125276
X163923Y127258
X155402Y127906
X150787Y126654
X142362Y124173
M30
