G04 ================== begin FILE IDENTIFICATION RECORD ==================*
G04 Layout Name:  ptmd_pcb20141102_2215.brd*
G04 Film Name:    SolderMaskTop*
G04 File Format:  Gerber RS274X*
G04 File Origin:  Cadence Allegro 16.5-P002*
G04 Origin Date:  Sun Nov 09 14:14:27 2014*
G04 *
G04 Layer:  VIA CLASS/SOLDERMASK_TOP*
G04 Layer:  PIN/SOLDERMASK_TOP*
G04 Layer:  PACKAGE GEOMETRY/SOLDERMASK_TOP*
G04 Layer:  BOARD GEOMETRY/SOLDERMASK_TOP*
G04 *
G04 Offset:    (0.0000 0.0000)*
G04 Mirror:    No*
G04 Mode:      Positive*
G04 Rotation:  0*
G04 FullContactRelief:  No*
G04 UndefLineWidth:     7.0000*
G04 ================== end FILE IDENTIFICATION RECORD ====================*
%FSAX55Y55*MOMM*%
%IR0*IPPOS*OFA0.00000B0.00000*MIA0B0*SFA1.00000B1.00000*%
%ADD20R,.9299X.7899*%
%ADD24R,.7899X.9299*%
%ADD17R,1.38X.92*%
%ADD16R,.92X1.38*%
%ADD34R,11.7602X8.763*%
%ADD35R,1.778X.5842*%
%ADD30R,1.8999X.4801*%
%ADD38C,1.5001*%
%ADD33C,2.032*%
%ADD19C,2.413*%
%ADD26C,1.4501*%
%ADD31C,1.65*%
%ADD21C,1.905*%
%ADD28R,1.1471X1.177*%
%ADD18R,1.177X1.1471*%
%ADD15R,6.604X3.5052*%
%ADD12C,1.4219*%
%ADD27R,1.4501X1.4501*%
%ADD11C,2.286*%
%ADD29R,1.65X1.65*%
%ADD10C,3.683*%
%ADD36R,2.286X6.604*%
%ADD23R,1.905X1.905*%
%ADD13R,5.588X1.524*%
%ADD37R,1.6764X1.6764*%
%ADD25R,.635X.5588*%
%ADD22R,2.6924X1.9558*%
%ADD32R,1.9558X2.6924*%
%ADD14C,3.8999*%
%LPD*%
G75*
G54D10*
X0034920000Y0026830000D03*
X0034890000Y0033170000D03*
X0044880000Y0026830000D03*
X0044900000Y0033180000D03*
G54D11*
X0035300000Y0027430000D03*
Y0027950000D03*
X0041300000Y0027430000D03*
Y0027950000D03*
G54D20*
X0037610000Y0028712000D03*
Y0028548000D03*
Y0029192000D03*
Y0029028000D03*
X0040520000Y0030658000D03*
Y0030822000D03*
X0041030000Y0032028000D03*
Y0032192000D03*
X0041590000Y0030752000D03*
Y0030588000D03*
Y0031212000D03*
Y0031048000D03*
X0041360000Y0032028000D03*
Y0032192000D03*
X0043320000Y0030938000D03*
Y0031102000D03*
X0043310000Y0030702000D03*
Y0030538000D03*
G54D12*
X0035408000Y0028932000D03*
Y0028424000D03*
Y0029440000D03*
Y0030456000D03*
Y0029948000D03*
Y0030964000D03*
Y0031472000D03*
X0036424000Y0027408000D03*
X0035916000D03*
X0036424000Y0027916000D03*
X0035916000D03*
X0036424000Y0028932000D03*
X0035916000D03*
Y0028424000D03*
Y0029440000D03*
Y0030456000D03*
Y0029948000D03*
X0036630000Y0030130000D03*
X0036424000Y0030964000D03*
X0036160000Y0031540000D03*
X0036932000Y0027408000D03*
Y0027916000D03*
Y0028932000D03*
Y0030456000D03*
X0036990000Y0029840000D03*
X0036932000Y0030964000D03*
X0036990000Y0030650000D03*
X0037020000Y0031480000D03*
X0037948000Y0027408000D03*
X0037440000D03*
X0037948000Y0027916000D03*
X0037440000D03*
X0037610000Y0028860000D03*
X0037440000Y0028932000D03*
X0037610000Y0029400000D03*
X0037440000Y0030456000D03*
X0037740000Y0030580000D03*
X0038456000Y0027408000D03*
Y0027916000D03*
X0038450000Y0030310000D03*
X0038910000Y0030370000D03*
X0038730000Y0030650000D03*
X0038440000Y0031290000D03*
X0038300000Y0032170000D03*
X0039472000Y0027408000D03*
X0038964000D03*
X0039472000Y0027916000D03*
X0038964000D03*
X0039300000Y0029000000D03*
X0039270000Y0029640000D03*
X0039100000Y0029770000D03*
X0039150000Y0030350000D03*
X0039020000Y0030040000D03*
X0039472000Y0032488000D03*
X0039980000Y0027408000D03*
Y0027916000D03*
X0039920000Y0028560000D03*
X0039770000Y0028620000D03*
Y0029520000D03*
X0039930000Y0030140000D03*
X0040020000Y0030500000D03*
X0040450000Y0030150000D03*
X0039730000Y0029940000D03*
X0040170000Y0030950000D03*
X0039810000Y0030600000D03*
X0040996000Y0027408000D03*
X0040488000D03*
X0040996000Y0027916000D03*
X0040488000D03*
X0040460000Y0029990000D03*
X0040830000Y0030530000D03*
X0040510000Y0029820000D03*
X0040980000Y0030030000D03*
X0040820000Y0030680000D03*
X0041215000Y0030780000D03*
X0040960000Y0031290000D03*
X0041504000Y0027408000D03*
X0041620000Y0027820000D03*
X0041450000Y0028690000D03*
X0041580000Y0028950000D03*
X0041340000Y0030340000D03*
X0041720000Y0030470000D03*
X0041800000Y0030250000D03*
X0041920000Y0030470000D03*
X0041800000Y0031070000D03*
X0041415000Y0031345000D03*
X0041710000Y0031340000D03*
X0041636500Y0032323500D03*
X0042012000Y0028932000D03*
X0042370000Y0029110000D03*
X0042012000Y0029948000D03*
X0042400000Y0030550000D03*
X0042150000Y0030470000D03*
X0042320000Y0031040000D03*
X0042474500Y0030924500D03*
X0041995500D03*
X0042390000Y0031340000D03*
X0043400000Y0029200000D03*
X0042780000Y0029510000D03*
X0043490000Y0030150000D03*
X0043100000Y0030480000D03*
X0043060000Y0030020000D03*
X0043120000Y0030880000D03*
X0043110000Y0030690000D03*
X0043450000Y0031820000D03*
X0043536000Y0029440000D03*
X0043560000Y0029060000D03*
X0044044000Y0029948000D03*
X0043600000Y0030830000D03*
X0043780000Y0031510000D03*
G54D21*
X0038138000Y0028490000D03*
Y0028744000D03*
Y0028998000D03*
Y0029252000D03*
X0038900000Y0028998000D03*
Y0028744000D03*
Y0029252000D03*
X0044230000Y0030460000D03*
Y0031460000D03*
G54D30*
X0039529500Y0029757500D03*
Y0029822500D03*
Y0029887500D03*
Y0029952500D03*
Y0030017500D03*
Y0030082500D03*
Y0030147500D03*
Y0030212500D03*
Y0030277500D03*
Y0030342500D03*
Y0030407500D03*
Y0030472500D03*
Y0030537500D03*
Y0030602500D03*
X0040230500Y0030472500D03*
Y0030407500D03*
Y0030342500D03*
Y0030277500D03*
Y0030212500D03*
Y0030147500D03*
Y0030082500D03*
Y0030017500D03*
Y0029952500D03*
Y0029887500D03*
Y0029822500D03*
Y0029757500D03*
Y0030602500D03*
Y0030537500D03*
G54D22*
X0037780000Y0029610000D03*
X0038280000D03*
G54D13*
X0035520000Y0030730000D03*
X0036437000D03*
G54D31*
X0039704000Y0031180000D03*
X0039472000Y0032580000D03*
X0039218000D03*
X0038964000D03*
X0040466000Y0031180000D03*
X0040212000D03*
X0039958000D03*
X0040720000D03*
X0041008000Y0032560000D03*
X0041262000D03*
X0041516000D03*
X0042144000Y0029400000D03*
X0043438000Y0032570000D03*
X0043184000D03*
X0044220000Y0029864000D03*
X0043692000Y0032570000D03*
G54D14*
X0035840000Y0031910000D03*
X0035370000Y0032210000D03*
X0035840000Y0032510000D03*
X0040480000Y0031910000D03*
X0040010000Y0032210000D03*
X0040480000Y0032510000D03*
G54D32*
X0040390000Y0028490000D03*
Y0028990000D03*
X0040960000D03*
Y0028490000D03*
G54D23*
X0038900000D03*
G54D15*
X0036390000Y0028510000D03*
Y0029500000D03*
X0037400000Y0030180000D03*
Y0031170000D03*
G54D33*
X0040940000Y0029650000D03*
X0040690000Y0030150000D03*
X0041190000D03*
G54D24*
X0038288000Y0030490000D03*
X0038452000D03*
X0038808000Y0030480000D03*
X0038328000Y0030040000D03*
X0038492000D03*
X0038678000Y0030820000D03*
X0038842000D03*
X0038972000Y0030480000D03*
X0039232000Y0030750000D03*
X0039068000D03*
X0040292000Y0029300000D03*
X0040128000D03*
X0041122000Y0030680000D03*
X0040958000D03*
X0041098000Y0031470000D03*
X0041262000D03*
X0041812000Y0031680000D03*
X0041648000D03*
X0041958000Y0031490000D03*
X0042122000D03*
X0042488000D03*
X0042652000D03*
X0042758000Y0030720000D03*
X0042922000D03*
G54D25*
X0038370000Y0030860000D03*
X0038465000Y0030730000D03*
X0038275000D03*
X0042380000Y0030080000D03*
X0042475000Y0029950000D03*
X0042285000D03*
G54D34*
X0042446000Y0027697900D03*
X0043936000D03*
G54D16*
X0036535500Y0031840000D03*
X0036344500D03*
X0038115500Y0032280000D03*
X0037924500D03*
X0038875500Y0031160000D03*
X0038684500D03*
X0038244500D03*
X0038435500D03*
X0039874500Y0028990000D03*
X0040065500D03*
X0041575500Y0028350000D03*
X0041384500D03*
X0041804500Y0030690000D03*
X0041995500D03*
G54D26*
X0038540000Y0031533000D03*
X0039160000D03*
G54D35*
X0041550000Y0030155000D03*
Y0030220000D03*
Y0030285000D03*
Y0030350000D03*
X0042030000D03*
Y0030285000D03*
Y0030220000D03*
Y0030155000D03*
G54D17*
X0036530000Y0032334500D03*
Y0032525500D03*
X0036850000Y0031494500D03*
Y0031685500D03*
X0039520000Y0028724500D03*
Y0028915500D03*
X0040080000Y0028625500D03*
Y0028434500D03*
G54D36*
X0042192000Y0028590000D03*
X0042700000D03*
X0043682000D03*
X0044190000D03*
G54D27*
X0038540000Y0031787000D03*
X0039160000D03*
G54D18*
X0037393500Y0029710000D03*
X0037246500D03*
X0038796500Y0029610000D03*
X0038853500Y0030030000D03*
X0038706500D03*
X0039526500Y0028410000D03*
X0039673500D03*
X0038943500Y0029610000D03*
X0039826500Y0030870000D03*
X0039973500D03*
X0040546500Y0030400000D03*
X0040693500D03*
X0041083500D03*
X0040936500D03*
X0041706500Y0029960000D03*
X0041853500D03*
X0041956500Y0031160000D03*
X0041783500Y0032160000D03*
X0041636500D03*
X0042376500Y0030350000D03*
X0042523500D03*
X0042103500Y0031160000D03*
X0042796500Y0029790000D03*
X0042943500D03*
Y0030020000D03*
X0042796500D03*
X0042933500Y0030310000D03*
X0042786500D03*
X0042923500Y0031030000D03*
X0042776500D03*
X0043863500Y0029200000D03*
X0043716500D03*
G54D37*
X0042230000Y0030720000D03*
X0042510000D03*
G54D28*
X0038730000Y0032213500D03*
Y0032066500D03*
X0039410000Y0029206500D03*
Y0029353500D03*
X0039200000Y0030036500D03*
Y0030183500D03*
X0039270000Y0032213500D03*
Y0032066500D03*
X0041290000Y0031193500D03*
Y0031046500D03*
X0043310000Y0030223500D03*
Y0030076500D03*
G54D19*
X0037420000Y0031630000D03*
X0037930000D03*
X0037675000D03*
G54D29*
X0038710000Y0032580000D03*
X0039450000Y0031180000D03*
X0041890000Y0029400000D03*
X0041770000Y0032560000D03*
X0042930000Y0032570000D03*
X0044220000Y0029610000D03*
G54D38*
X0042150000Y0031960000D03*
X0042600000D03*
X0042150000Y0032610000D03*
X0042600000D03*
M02*
